<svg xmlns="http://www.w3.org/2000/svg" viewBox="0 0 32 32">
  <rect width="32" height="32" rx="6" fill="white"/>
  <g transform="translate(4, 4) scale(1.4)">
    <path d="M12.6362 5.2381C12.1357 5.2381 11.6352 5.2327 11.1293 5.2381C10.6988 5.2435 10.3867 5.09235 10.1983 4.67127C9.98306 4.18001 9.54177 3.91549 9.05204 3.76433C8.37934 3.55919 7.69049 3.56997 7.01241 3.76972C6.39352 3.94787 6.02757 4.37434 6.00604 4.93038C5.98452 5.52421 6.32894 5.89671 6.83482 6.12884C7.78198 6.56072 8.79911 6.74427 9.81085 6.94942C10.8065 7.14916 11.7805 7.42988 12.7331 7.79157C16.3441 9.16818 16.1074 13.7785 13.6964 15.5653C12.4317 16.4993 11.0056 16.9473 9.46643 17.0823C7.45908 17.2605 5.48941 17.1201 3.65965 16.1646C2.28196 15.4466 1.32942 14.3831 1.04957 12.8013C0.915032 12.0294 1.07648 11.8296 1.84605 11.8296C2.78783 11.8296 3.72962 11.8404 4.66602 11.8242C5.06964 11.8188 5.3764 11.9754 5.5809 12.2939C6.0491 13.0227 6.71642 13.3898 7.55595 13.4977C8.36319 13.6057 9.1543 13.5625 9.9131 13.2764C10.4459 13.0767 10.8441 12.7366 10.8603 12.1157C10.8764 11.5057 10.4836 11.1818 9.98306 10.9605C8.91212 10.4908 7.76584 10.318 6.64108 10.0589C5.7262 9.84837 4.83823 9.56226 3.98255 9.15198C2.32502 8.3584 1.44781 7.06278 1.43166 5.20571C1.41552 3.4836 2.13666 2.14479 3.56817 1.20006C4.86514 0.34171 6.32894 0.0555792 7.85194 0.0231885C9.66555 -0.0146007 11.3715 0.341711 12.8676 1.4376C13.9009 2.19338 14.6651 3.1381 14.8696 4.44993C14.9557 4.99517 14.7727 5.22191 14.2345 5.22731C13.7018 5.2381 13.169 5.2381 12.6362 5.2381Z" fill="#27284E"/>
  </g>
</svg>
