<svg width="118" height="32" viewBox="0 0 118 32" fill="none" xmlns="http://www.w3.org/2000/svg">
<g clip-path="url(#clip0_1689_5611)">
<path d="M17.1936 8.74624C17.2044 7.33724 17.1075 6.07401 17.4196 4.83776C18.0385 2.38686 19.653 0.929282 22.0478 0.335452C24.1843 -0.188199 26.3155 -0.139614 28.3497 0.772725C30.4432 1.71206 31.611 3.39637 31.8424 5.65832C32.0577 7.75292 32.0684 9.86373 31.7832 11.9637C31.6971 12.5899 31.5141 13.1892 31.2181 13.7452C31.0943 13.9719 31.132 14.1123 31.315 14.2635C31.5033 14.4254 31.6809 14.609 31.8585 14.7871C32.6873 15.6185 32.7788 16.7252 32.0899 17.5295C31.3796 18.3609 30.0934 18.5013 29.2 17.8157C28.8664 17.5565 28.5596 17.2596 28.2744 16.9519C28.043 16.709 27.8385 16.6496 27.4994 16.7413C25.2983 17.3298 23.0973 17.3406 20.95 16.493C18.7651 15.6293 17.6188 13.9449 17.2905 11.6452C17.1398 10.6411 17.2259 9.61539 17.1936 8.74624ZM27.2842 10.3334C27.3864 8.77863 27.4295 7.24007 27.1711 5.7231C26.9344 4.3141 25.9334 3.59612 24.4373 3.62851C23.065 3.6609 22.064 4.49226 21.9079 5.86887C21.7088 7.66655 21.7088 9.48043 21.9025 11.2781C22.0586 12.7249 23.2372 13.6588 24.6149 13.5023C24.1897 13.011 23.6247 12.6601 23.4686 11.9799C23.3071 11.2943 23.4578 10.7005 23.9099 10.1876C24.7171 9.28609 25.7665 9.32927 27.2842 10.3334Z" fill="#27284E"/>
<path d="M68.4213 8.54645C68.4213 6.09555 68.4213 3.63925 68.4213 1.18835C68.4213 0.427167 68.5935 0.249023 69.3631 0.249023C71.5104 0.254422 73.6577 0.243618 75.8049 0.276009C77.0804 0.297603 78.3289 0.535134 79.4806 1.11817C81.3803 2.08449 82.4297 3.67704 82.6557 5.76084C82.871 7.73128 82.9033 9.71791 82.6019 11.6829C82.1606 14.5873 80.2878 16.3688 77.3656 16.7575C76.5422 16.8655 75.7134 16.9141 74.8847 16.9141C73.0065 16.9141 71.1229 16.9141 69.2447 16.9141C68.6312 16.9141 68.4267 16.7035 68.4213 16.0881C68.416 13.5778 68.4213 11.0621 68.4213 8.54645ZM72.9042 8.56264C72.9042 10.0256 72.915 11.4832 72.8988 12.9462C72.8935 13.2377 72.9742 13.3187 73.2648 13.3133C74.0936 13.2863 74.9277 13.3241 75.7511 13.2755C77.1127 13.1999 77.8876 12.5089 78.0921 11.1593C78.3397 9.53976 78.3181 7.89863 78.1352 6.27909C77.9683 4.76212 77.1611 4.06033 75.6381 3.89298C74.89 3.812 74.1366 3.89298 73.3886 3.8444C73.0065 3.8228 72.8827 3.91458 72.8935 4.31946C72.9204 5.73386 72.9042 7.14825 72.9042 8.56264Z" fill="#27284E"/>
<path d="M85.4219 8.584C85.4219 6.09532 85.4219 3.61202 85.4219 1.12333C85.4219 0.448527 85.6102 0.254191 86.2829 0.254191C88.5432 0.259589 90.7981 0.237994 93.0584 0.28658C94.6836 0.324369 96.2282 0.686066 97.5144 1.77116C98.849 2.89943 99.258 4.4002 99.1773 6.08452C99.0912 7.91459 98.2463 9.28041 96.6587 10.1712C96.3681 10.3331 96.352 10.4411 96.5134 10.7272C97.4821 12.4493 98.4293 14.1822 99.3818 15.9151C99.7478 16.5845 99.5486 16.93 98.7952 16.9354C97.8373 16.9408 96.8794 16.9246 95.9268 16.9408C95.3241 16.9516 94.9366 16.7033 94.6675 16.1526C93.8979 14.5763 93.0853 13.0161 92.305 11.4452C92.192 11.2184 92.0682 11.1159 91.8045 11.1267C91.304 11.1483 90.7981 11.1483 90.2976 11.1267C89.9909 11.1105 89.894 11.2023 89.8994 11.5208C89.9155 13.0161 89.9048 14.5115 89.9048 16.0069C89.9048 16.7627 89.7379 16.9354 89.006 16.9354C88.0965 16.9354 87.1871 16.9408 86.2776 16.9354C85.6102 16.93 85.4219 16.7357 85.4219 16.0555C85.4219 13.556 85.4219 11.0673 85.4219 8.584ZM89.9048 5.64724C89.9048 6.19788 89.9048 6.74853 89.9048 7.29917C89.9048 7.45572 89.8725 7.61768 90.1254 7.60688C91.078 7.56909 92.0413 7.69325 92.9885 7.54749C94.1078 7.37474 94.6137 6.67294 94.5545 5.47449C94.5007 4.48117 93.7903 3.76859 92.7517 3.7308C91.9067 3.7038 91.0564 3.73078 90.2115 3.71459C89.9586 3.70919 89.894 3.80096 89.8994 4.0385C89.9155 4.57834 89.9048 5.11279 89.9048 5.64724Z" fill="#27284E"/>
<path d="M48.7785 6.32238C48.7408 7.75837 48.8539 9.53986 48.7355 11.316C48.531 14.3499 46.9972 16.1962 44.0427 16.8818C42.0838 17.3352 40.1195 17.2866 38.2144 16.5848C35.9164 15.7373 34.711 14.0152 34.5172 11.6129C34.3289 9.29152 34.4742 6.9594 34.4473 4.63266C34.4365 3.4504 34.4419 2.27354 34.4473 1.09128C34.4473 0.475851 34.6571 0.259908 35.2599 0.259908C36.2017 0.25451 37.1435 0.25451 38.0852 0.259908C38.731 0.265307 38.9302 0.465059 38.9302 1.09668C38.9302 4.21159 38.9355 7.32648 38.9248 10.4468C38.9248 10.8301 38.9571 11.2026 39.0378 11.5697C39.3392 12.9139 40.5231 13.6535 42.0192 13.4483C43.5099 13.2432 44.2849 12.2823 44.2902 10.6088C44.2956 7.47765 44.2902 4.34655 44.2902 1.21545C44.2902 0.427271 44.4571 0.265307 45.2643 0.259908C46.1415 0.259908 47.0187 0.25451 47.9013 0.259908C48.5686 0.265307 48.7785 0.465058 48.7785 1.12907C48.7839 2.74321 48.7785 4.36274 48.7785 6.32238Z" fill="#27284E"/>
<path d="M12.6362 5.2381C12.1357 5.2381 11.6352 5.2327 11.1293 5.2381C10.6988 5.2435 10.3867 5.09235 10.1983 4.67127C9.98306 4.18001 9.54177 3.91549 9.05204 3.76433C8.37934 3.55919 7.69049 3.56997 7.01241 3.76972C6.39352 3.94787 6.02757 4.37434 6.00604 4.93038C5.98452 5.52421 6.32894 5.89671 6.83482 6.12884C7.78198 6.56072 8.79911 6.74427 9.81085 6.94942C10.8065 7.14916 11.7805 7.42988 12.7331 7.79157C16.3441 9.16818 16.1074 13.7785 13.6964 15.5653C12.4317 16.4993 11.0056 16.9473 9.46643 17.0823C7.45908 17.2605 5.48941 17.1201 3.65965 16.1646C2.28196 15.4466 1.32942 14.3831 1.04957 12.8013C0.915032 12.0294 1.07648 11.8296 1.84605 11.8296C2.78783 11.8296 3.72962 11.8404 4.66602 11.8242C5.06964 11.8188 5.3764 11.9754 5.5809 12.2939C6.0491 13.0227 6.71642 13.3898 7.55595 13.4977C8.36319 13.6057 9.1543 13.5625 9.9131 13.2764C10.4459 13.0767 10.8441 12.7366 10.8603 12.1157C10.8764 11.5057 10.4836 11.1818 9.98306 10.9605C8.91212 10.4908 7.76584 10.318 6.64108 10.0589C5.7262 9.84837 4.83823 9.56226 3.98255 9.15198C2.32502 8.3584 1.44781 7.06278 1.43166 5.20571C1.41552 3.4836 2.13666 2.14479 3.56817 1.20006C4.86514 0.34171 6.32894 0.0555792 7.85194 0.0231885C9.66555 -0.0146007 11.3715 0.341711 12.8676 1.4376C13.9009 2.19338 14.6651 3.1381 14.8696 4.44993C14.9557 4.99517 14.7727 5.22191 14.2345 5.22731C13.7018 5.2381 13.169 5.2381 12.6362 5.2381Z" fill="#27284E"/>
<path d="M108.756 14.0913C107.847 14.0913 106.937 14.1021 106.028 14.0859C105.764 14.0805 105.64 14.1722 105.56 14.4152C105.36 15.009 105.129 15.592 104.908 16.1805C104.688 16.7635 104.478 16.92 103.864 16.9254C103.003 16.9308 102.142 16.9254 101.276 16.9254C100.485 16.9254 100.286 16.6447 100.549 15.9105C101.367 13.6432 102.191 11.3704 103.009 9.10308C103.972 6.44165 104.941 3.77482 105.909 1.11338C106.162 0.416977 106.388 0.260424 107.126 0.255025C108.224 0.249627 109.321 0.249627 110.419 0.255025C111.146 0.260424 111.377 0.427768 111.63 1.12417C113.422 6.05836 115.209 10.9926 116.996 15.9267C117.248 16.6285 117.039 16.9254 116.28 16.9254C115.419 16.9254 114.558 16.9308 113.691 16.9254C113.056 16.92 112.836 16.7635 112.61 16.1589C112.389 15.5704 112.163 14.9874 111.958 14.399C111.878 14.1668 111.765 14.0859 111.522 14.0913C110.608 14.0967 109.682 14.0913 108.756 14.0913ZM110.839 10.4689C110.15 8.48766 109.483 6.57121 108.772 4.53059C108.084 6.50643 107.438 8.35269 106.792 10.1936C106.717 10.4041 106.792 10.4689 107.007 10.4689C108.256 10.4689 109.51 10.4689 110.839 10.4689Z" fill="#27284E"/>
<path d="M58.325 0.248568C58.9063 0.248568 59.4875 0.248568 60.0633 0.248568C60.6068 0.248568 60.962 0.486096 61.1558 1.02054C62.9586 6.01411 64.7722 11.0023 66.5804 15.9959C66.7957 16.5843 66.5643 16.9136 65.9454 16.919C65.0359 16.9244 64.1264 16.9136 63.2169 16.9244C62.7003 16.9298 62.3612 16.7085 62.1837 16.2064C61.9791 15.6126 61.737 15.0349 61.5432 14.4411C61.4571 14.1712 61.3334 14.0794 61.0481 14.0794C59.2291 14.0956 57.4102 14.0902 55.5912 14.0794C55.3275 14.0794 55.2037 14.155 55.1176 14.4033C54.9185 14.9971 54.6871 15.5802 54.4718 16.1686C54.2511 16.7516 54.0413 16.9136 53.4278 16.919C52.5344 16.9244 51.6411 16.9244 50.7477 16.919C50.0642 16.9136 49.8597 16.6059 50.0965 15.9473C51.7272 11.445 53.3578 6.94265 54.9884 2.44034C55.1606 1.97067 55.3275 1.49561 55.5051 1.02595C55.7203 0.442913 55.9787 0.253961 56.5922 0.243164C57.1626 0.243164 57.7438 0.248568 58.325 0.248568ZM58.3358 4.55654C58.282 4.68071 58.2604 4.72388 58.2443 4.76707C57.6147 6.57016 56.9904 8.36785 56.3607 10.1709C56.2639 10.4517 56.3984 10.4786 56.6298 10.4786C57.507 10.4679 58.3842 10.4786 59.2614 10.4732C59.622 10.4732 60.1817 10.5866 60.2893 10.4139C60.4615 10.1439 60.1386 9.73365 60.0202 9.38815C59.4767 7.8118 58.9224 6.24086 58.3358 4.55654Z" fill="#27284E"/>
<path d="M99.7315 28.4401C99.1179 29.1095 98.4076 29.3524 97.5896 29.3362C96.4271 29.3092 95.6414 28.8234 95.2378 27.7329C94.8019 26.5614 94.7804 25.3575 95.2055 24.1807C95.8459 22.41 98.0578 21.8647 99.4785 23.1064C99.5485 23.1658 99.6077 23.2306 99.6722 23.2899C99.8014 23.1874 99.7422 23.0686 99.753 22.9714C99.7853 22.7069 99.9144 22.5827 100.189 22.5989C100.469 22.6097 100.571 22.7609 100.571 23.02C100.566 25.1902 100.614 27.3604 100.539 29.5305C100.479 31.2365 99.4408 32.0516 97.6488 31.9976C96.9599 31.9761 96.3141 31.8573 95.7598 31.4038C95.3939 31.1069 95.1625 30.729 95.0871 30.2539C95.0548 30.038 95.0979 29.8707 95.3239 29.8167C95.5392 29.7627 95.7221 29.8113 95.8459 30.0218C96.524 31.1663 97.412 31.501 98.6713 31.0853C99.1825 30.918 99.5216 30.5887 99.6507 30.0488C99.7799 29.5414 99.7584 29.0339 99.7315 28.4401ZM99.7637 25.892C99.753 25.6275 99.7583 25.3575 99.7207 25.093C99.5969 24.0781 98.9134 23.3439 98.0524 23.2683C96.8953 23.1658 96.2226 23.5545 95.9213 24.5802C95.6576 25.4709 95.6576 26.3833 95.9428 27.274C96.2172 28.1162 96.75 28.5264 97.5949 28.5642C98.4345 28.602 99.0803 28.2835 99.4731 27.5007C99.7261 26.9879 99.7745 26.448 99.7637 25.892Z" fill="#27284E"/>
<path d="M89.6301 23.3442C89.6301 22.4535 89.6247 21.6437 89.6301 20.8285C89.6301 20.5424 89.5439 20.1807 90.0121 20.1807C90.5019 20.1753 90.4265 20.5532 90.4265 20.8555C90.4265 23.4036 90.4319 25.9517 90.4265 28.4997C90.4265 28.7967 90.5288 29.1854 90.0498 29.2177C89.5816 29.2501 89.6193 28.8722 89.6247 28.5969C89.5224 28.5214 89.474 28.5699 89.4309 28.6077C87.6658 30.0923 85.4109 29.3581 84.9104 27.1124C84.6897 26.119 84.7059 25.1041 85.0664 24.1378C85.7176 22.4049 87.9295 21.8758 89.3287 23.0959C89.4094 23.1661 89.4901 23.2309 89.6301 23.3442ZM89.6301 25.8221C89.6516 25.5414 89.6193 25.2121 89.5601 24.8882C89.3933 23.9758 88.6721 23.3064 87.8111 23.2524C86.6917 23.1877 86.062 23.5871 85.7661 24.6183C85.4916 25.5738 85.54 26.5293 85.8791 27.4794C86.3849 28.8938 88.4407 28.7967 89.0704 27.9113C89.517 27.2959 89.6462 26.6103 89.6301 25.8221Z" fill="#27284E"/>
<path d="M113.917 28.4667C112.879 29.433 111.733 29.595 110.511 29.0335C109.854 28.7366 109.451 28.1968 109.429 27.4464C109.413 26.696 109.817 26.1777 110.446 25.816C111.103 25.4382 111.84 25.368 112.567 25.2654C112.938 25.2114 113.309 25.152 113.681 25.1088C113.874 25.0873 113.928 25.0171 113.939 24.8173C113.977 23.8942 113.487 23.3112 112.567 23.2572C111.77 23.2086 111.017 23.2626 110.64 24.1533C110.527 24.4179 110.269 24.3801 110.064 24.3045C109.817 24.2127 109.854 23.9752 109.93 23.7808C110.199 23.0898 110.753 22.7227 111.431 22.55C112.012 22.3988 112.615 22.4204 113.202 22.5662C114.192 22.8145 114.735 23.5919 114.752 24.8119C114.768 26.086 114.757 27.36 114.757 28.634C114.757 28.9364 114.73 29.2279 114.332 29.2225C113.917 29.2171 113.923 28.9202 113.939 28.6232C113.934 28.5909 113.928 28.5585 113.917 28.4667ZM113.934 26.2371C113.831 26.14 114.1 25.7998 113.767 25.8484C112.863 25.9834 111.926 25.9942 111.065 26.3721C110.484 26.6258 110.231 26.9659 110.258 27.4518C110.279 27.9268 110.64 28.3047 111.216 28.4721C112.685 28.8986 113.912 27.9052 113.934 26.2371Z" fill="#27284E"/>
<path d="M106.69 25.4113C106.69 25.9295 106.685 26.4478 106.69 26.966C106.701 28.1483 106.97 28.4236 108.154 28.4506C108.332 28.456 108.542 28.402 108.638 28.6341C108.757 28.9095 108.606 29.1686 108.294 29.2172C106.819 29.4547 106.034 28.8555 105.91 27.3763C105.813 26.1671 105.878 24.9578 105.878 23.7485C105.878 23.4408 105.792 23.3275 105.485 23.3653C105.313 23.3869 105.14 23.3761 104.968 23.3653C104.721 23.3437 104.613 23.1925 104.624 22.9496C104.635 22.7228 104.748 22.6095 104.979 22.5987C105.259 22.5879 105.652 22.6797 105.792 22.5339C106.001 22.3072 105.856 21.9077 105.867 21.5784C105.878 21.2491 105.862 20.9198 105.878 20.5904C105.888 20.3151 106.034 20.1532 106.33 20.1748C106.604 20.1964 106.696 20.3475 106.696 20.6174C106.685 21.1681 106.706 21.7187 106.685 22.2694C106.674 22.5447 106.766 22.6203 107.029 22.6041C107.39 22.5825 107.75 22.6041 108.111 22.5987C108.375 22.5933 108.536 22.685 108.542 22.9658C108.547 23.2681 108.38 23.3815 108.095 23.3761C107.783 23.3707 107.465 23.4084 107.159 23.3653C106.744 23.3113 106.663 23.484 106.685 23.8565C106.717 24.3694 106.69 24.893 106.69 25.4113Z" fill="#27284E"/>
<path d="M117.512 24.7422C117.512 26.0324 117.512 27.3226 117.512 28.6075C117.512 28.9044 117.517 29.2067 117.114 29.2175C116.715 29.2283 116.688 28.9422 116.688 28.6345C116.688 26.0108 116.688 23.3818 116.688 20.7581C116.688 20.4558 116.699 20.1643 117.108 20.1751C117.523 20.1805 117.512 20.4828 117.512 20.7797C117.512 22.1023 117.512 23.4196 117.512 24.7422Z" fill="#27284E"/>
<path d="M103.397 25.881C103.397 26.8257 103.391 27.7705 103.402 28.7098C103.407 29.0067 103.327 29.2118 103.004 29.2226C102.675 29.2334 102.584 29.0229 102.584 28.7314C102.584 26.8473 102.584 24.9579 102.584 23.0738C102.584 22.7823 102.67 22.5933 103.009 22.5987C103.364 22.6041 103.407 22.8201 103.402 23.1008C103.391 24.0239 103.397 24.9525 103.397 25.881Z" fill="#27284E"/>
<path d="M92.4558 25.8862C92.4558 24.9577 92.4558 24.0345 92.4558 23.106C92.4558 22.8361 92.4666 22.6039 92.8325 22.5931C93.22 22.5823 93.2523 22.8199 93.2523 23.1168C93.2469 24.9684 93.2469 26.8201 93.2523 28.6772C93.2523 28.9741 93.2092 29.2224 92.8433 29.217C92.4665 29.2116 92.4504 28.9525 92.4558 28.661C92.4612 27.7379 92.4558 26.8093 92.4558 25.8862Z" fill="#27284E"/>
<path d="M93.4086 20.7413C93.4355 21.1462 93.231 21.292 92.8435 21.2974C92.4506 21.3028 92.2892 21.1462 92.2892 20.7413C92.2838 20.3148 92.4614 20.1637 92.8758 20.1691C93.2848 20.1745 93.4355 20.3634 93.4086 20.7413Z" fill="#27284E"/>
<path d="M102.454 20.7035C102.39 20.2554 102.643 20.1744 103.019 20.169C103.445 20.1636 103.552 20.3904 103.552 20.7629C103.552 21.1786 103.337 21.2973 102.96 21.2973C102.54 21.2919 102.401 21.0868 102.454 20.7035Z" fill="#27284E"/>
<rect x="1" y="22.2314" width="81.7651" height="7.41051" rx="3.70525" fill="url(#paint0_linear_1689_5611)"/>
</g>
<defs>
<linearGradient id="paint0_linear_1689_5611" x1="22.1007" y1="27.2404" x2="82.6633" y2="29.7396" gradientUnits="userSpaceOnUse">
<stop stop-color="#1007E2"/>
<stop offset="0.177083" stop-color="#1D29E3"/>
<stop offset="0.354167" stop-color="#3059E5"/>
<stop offset="0.612826" stop-color="#448EE6"/>
<stop offset="1" stop-color="#65E1E9"/>
</linearGradient>
<clipPath id="clip0_1689_5611">
<rect width="118" height="32" fill="white"/>
</clipPath>
</defs>
</svg>
